<svg xmlns="http://www.w3.org/2000/svg" width="304.593" height="566.812" viewBox="0 0 304.593 566.812">
  <g id="Path_7" data-name="Path 7" transform="translate(0 63.843)" fill="#989898">
    <path d="M 16.05052757263184 502.4686889648438 L 8.275242805480957 502.4686889648438 C 3.987956523895264 502.4686889648438 0.5000280737876892 499.5482788085938 0.5000280737876892 495.9585571289062 L 0.5000280737876892 -17.91573524475098 L 0.5000280737876892 -63.34344863891602 L 117.2710266113281 -63.34344863891602 L 295.41455078125 -63.34344863891602 C 287.4754333496094 -62.53519821166992 274.8652648925781 -61.28267288208008 259.7772521972656 -59.78401947021484 C 219.4435272216797 -55.77787780761719 158.4908142089844 -49.72373580932617 107.7864532470703 -44.32702255249023 C 79.91881561279297 -41.3609504699707 58.16188430786133 -38.91180801391602 43.11995697021484 -37.04766464233398 C 34.59017181396484 -35.99059295654297 28.02467155456543 -35.09751892089844 23.60567092895508 -34.39330673217773 C 21.26688575744629 -34.02059173583984 19.47545623779297 -33.69209289550781 18.28124237060547 -33.41695022583008 C 16.5508861541748 -33.01830673217773 16.05052757263184 -32.75409317016602 16.05052757263184 -32.23902130126953 L 16.05052757263184 502.4686889648438 Z" stroke="none"/>
    <path d="M 0.999969482421875 -62.84344482421875 L 0.999969482421875 495.9585571289062 C 0.999969482421875 499.2725524902344 4.263671875 501.9686889648438 8.275238037109375 501.9686889648438 L 15.550537109375 501.9686889648438 L 15.550537109375 -32.239013671875 C 15.550537109375 -33.06781005859375 16.39288330078125 -33.38153076171875 16.669677734375 -33.48464965820312 C 17.020751953125 -33.61544799804688 17.51116943359375 -33.75265502929688 18.1689453125 -33.90423583984375 C 19.37432861328125 -34.181884765625 21.17697143554688 -34.51260375976562 23.52694702148438 -34.8870849609375 C 27.95166015625 -35.59222412109375 34.52294921875 -36.486083984375 43.0584716796875 -37.54388427734375 C 58.10316467285156 -39.40838623046875 79.86302185058594 -41.85781860351562 107.7334594726562 -44.82424926757812 C 158.4396057128906 -50.22116088867188 219.3933868408203 -56.275390625 259.7277526855469 -60.28158569335938 C 269.5692443847656 -61.25912475585938 278.3487243652344 -62.13113403320312 285.4657897949219 -62.84344482421875 L 0.999969482421875 -62.84344482421875 M -3.0517578125e-05 -63.84344482421875 L 117.2710266113281 -63.84344482421875 C 117.2710266113281 -63.84344482421875 301.2081604003906 -63.84344482421875 304.5398864746094 -63.84344482421875 C 309.1101684570312 -63.84344482421875 16.550537109375 -36.110595703125 16.550537109375 -32.239013671875 L 16.550537109375 502.9686889648438 L 8.275238037109375 502.9686889648438 C 3.7049560546875 502.9686889648438 -3.0517578125e-05 499.8302001953125 -3.0517578125e-05 495.9585571289062 L -3.0517578125e-05 -17.91574096679688 C -3.0517578125e-05 -18.427734375 -3.0517578125e-05 -63.84344482421875 -3.0517578125e-05 -63.84344482421875 Z" stroke="none" fill="#707070"/>
  </g>
</svg>
